<svg width="20" height="20" viewBox="0 0 20 20" fill="none" xmlns="http://www.w3.org/2000/svg">
<circle cx="10" cy="10" r="10" fill="#1750FF"/>
<path fill-rule="evenodd" clip-rule="evenodd" d="M14.0833 9.41658H10.5833V5.91659C10.5833 5.594 10.3219 5.33325 9.99992 5.33325C9.67792 5.33325 9.41658 5.594 9.41658 5.91659V9.41658H5.91659C5.59459 9.41658 5.33325 9.67733 5.33325 9.99992C5.33325 10.3225 5.59459 10.5833 5.91659 10.5833H9.41658V14.0833C9.41658 14.4058 9.67792 14.6666 9.99992 14.6666C10.3219 14.6666 10.5833 14.4058 10.5833 14.0833V10.5833H14.0833C14.4053 10.5833 14.6666 10.3225 14.6666 9.99992C14.6666 9.67733 14.4053 9.41658 14.0833 9.41658Z" fill="white"/>
<mask id="mask0" mask-type="alpha" maskUnits="userSpaceOnUse" x="5" y="5" width="10" height="10">
<path fill-rule="evenodd" clip-rule="evenodd" d="M14.0833 9.41658H10.5833V5.91659C10.5833 5.594 10.3219 5.33325 9.99992 5.33325C9.67792 5.33325 9.41658 5.594 9.41658 5.91659V9.41658H5.91659C5.59459 9.41658 5.33325 9.67733 5.33325 9.99992C5.33325 10.3225 5.59459 10.5833 5.91659 10.5833H9.41658V14.0833C9.41658 14.4058 9.67792 14.6666 9.99992 14.6666C10.3219 14.6666 10.5833 14.4058 10.5833 14.0833V10.5833H14.0833C14.4053 10.5833 14.6666 10.3225 14.6666 9.99992C14.6666 9.67733 14.4053 9.41658 14.0833 9.41658Z" fill="white"/>
</mask>
<g mask="url(#mask0)">
<rect x="3" y="3" width="14" height="14" fill="white"/>
</g>
</svg>
