<svg width="28" height="28" viewBox="0 0 28 28" fill="none" xmlns="http://www.w3.org/2000/svg">
<path fill-rule="evenodd" clip-rule="evenodd" d="M19.7035 21.3714C19.5028 20.8663 19.2182 20.4253 18.9685 20.0484C18.8425 19.8594 18.713 19.6669 18.5998 19.4686C18.146 18.6799 18.3023 18.3603 19.0385 17.1271L19.1575 16.9253C19.7537 15.9208 19.7863 14.9571 19.8167 14.1078C19.8307 13.6901 19.8447 13.2969 19.9252 12.9271C20.113 12.0731 21.9178 11.8456 23.0367 11.7114C23.2245 12.4453 23.333 13.2094 23.333 14.0004C23.333 16.9976 21.9073 19.6623 19.7035 21.3714ZM13.9997 4.66707C14.7183 4.66707 15.4125 4.75574 16.0845 4.90974C15.8873 5.34374 15.5828 5.73924 15.1815 6.05307C14.9272 6.25374 14.6413 6.42057 14.3578 6.58974C13.5983 7.04241 12.7385 7.55574 12.1995 8.54274C11.4808 9.86107 11.4808 11.2074 11.4808 12.3951C11.4808 13.9759 11.4295 14.9104 10.3748 15.7352C8.77767 16.9871 6.33351 16.2882 4.82151 15.6524C4.72584 15.1146 4.66634 14.5639 4.66634 14.0004C4.66634 8.85424 8.85351 4.66707 13.9997 4.66707ZM13.9997 2.33374C7.56667 2.33374 2.33301 7.56741 2.33301 14.0004C2.33301 20.4322 7.56667 25.6671 13.9997 25.6671C20.4327 25.6671 25.6663 20.4322 25.6663 14.0004C25.6663 7.56741 20.4327 2.33374 13.9997 2.33374Z" fill="#A6ADB1"/>
<mask id="mask0" mask-type="alpha" maskUnits="userSpaceOnUse" x="2" y="2" width="24" height="24">
<path fill-rule="evenodd" clip-rule="evenodd" d="M19.7035 21.3714C19.5028 20.8663 19.2182 20.4253 18.9685 20.0484C18.8425 19.8594 18.713 19.6669 18.5998 19.4686C18.146 18.6799 18.3023 18.3603 19.0385 17.1271L19.1575 16.9253C19.7537 15.9208 19.7863 14.9571 19.8167 14.1078C19.8307 13.6901 19.8447 13.2969 19.9252 12.9271C20.113 12.0731 21.9178 11.8456 23.0367 11.7114C23.2245 12.4453 23.333 13.2094 23.333 14.0004C23.333 16.9976 21.9073 19.6623 19.7035 21.3714ZM13.9997 4.66707C14.7183 4.66707 15.4125 4.75574 16.0845 4.90974C15.8873 5.34374 15.5828 5.73924 15.1815 6.05307C14.9272 6.25374 14.6413 6.42057 14.3578 6.58974C13.5983 7.04241 12.7385 7.55574 12.1995 8.54274C11.4808 9.86107 11.4808 11.2074 11.4808 12.3951C11.4808 13.9759 11.4295 14.9104 10.3748 15.7352C8.77767 16.9871 6.33351 16.2882 4.82151 15.6524C4.72584 15.1146 4.66634 14.5639 4.66634 14.0004C4.66634 8.85424 8.85351 4.66707 13.9997 4.66707ZM13.9997 2.33374C7.56667 2.33374 2.33301 7.56741 2.33301 14.0004C2.33301 20.4322 7.56667 25.6671 13.9997 25.6671C20.4327 25.6671 25.6663 20.4322 25.6663 14.0004C25.6663 7.56741 20.4327 2.33374 13.9997 2.33374Z" fill="white"/>
</mask>
<g mask="url(#mask0)">
<rect width="28" height="28" fill="#A6ADB1"/>
</g>
</svg>
