<svg width="28" height="28" viewBox="0 0 28 28" fill="none" xmlns="http://www.w3.org/2000/svg">
<path fill-rule="evenodd" clip-rule="evenodd" d="M15.1668 14.9764V16.3333C15.1668 16.9784 14.6453 17.4999 14.0002 17.4999C13.355 17.4999 12.8335 16.9784 12.8335 16.3333V13.9999C12.8335 13.3548 13.355 12.8333 14.0002 12.8333C14.965 12.8333 15.7502 12.0481 15.7502 11.0833C15.7502 10.1184 14.965 9.33325 14.0002 9.33325C13.0353 9.33325 12.2502 10.1184 12.2502 11.0833C12.2502 11.7284 11.7287 12.2499 11.0835 12.2499C10.4383 12.2499 9.91683 11.7284 9.91683 11.0833C9.91683 8.83159 11.7485 6.99992 14.0002 6.99992C16.2518 6.99992 18.0835 8.83159 18.0835 11.0833C18.0835 12.9266 16.8468 14.4701 15.1668 14.9764ZM14.0002 20.9999C13.355 20.9999 12.8335 20.4784 12.8335 19.8333C12.8335 19.1881 13.355 18.6666 14.0002 18.6666C14.6453 18.6666 15.1668 19.1881 15.1668 19.8333C15.1668 20.4784 14.6453 20.9999 14.0002 20.9999ZM14.0002 2.33325C7.56716 2.33325 2.3335 7.56692 2.3335 13.9999C2.3335 20.4329 7.56716 25.6666 14.0002 25.6666C20.4332 25.6666 25.6668 20.4329 25.6668 13.9999C25.6668 7.56692 20.4332 2.33325 14.0002 2.33325Z" fill="#A6ADB1"/>
<mask id="mask0" mask-type="alpha" maskUnits="userSpaceOnUse" x="2" y="2" width="24" height="24">
<path fill-rule="evenodd" clip-rule="evenodd" d="M15.1668 14.9764V16.3333C15.1668 16.9784 14.6453 17.4999 14.0002 17.4999C13.355 17.4999 12.8335 16.9784 12.8335 16.3333V13.9999C12.8335 13.3548 13.355 12.8333 14.0002 12.8333C14.965 12.8333 15.7502 12.0481 15.7502 11.0833C15.7502 10.1184 14.965 9.33325 14.0002 9.33325C13.0353 9.33325 12.2502 10.1184 12.2502 11.0833C12.2502 11.7284 11.7287 12.2499 11.0835 12.2499C10.4383 12.2499 9.91683 11.7284 9.91683 11.0833C9.91683 8.83159 11.7485 6.99992 14.0002 6.99992C16.2518 6.99992 18.0835 8.83159 18.0835 11.0833C18.0835 12.9266 16.8468 14.4701 15.1668 14.9764ZM14.0002 20.9999C13.355 20.9999 12.8335 20.4784 12.8335 19.8333C12.8335 19.1881 13.355 18.6666 14.0002 18.6666C14.6453 18.6666 15.1668 19.1881 15.1668 19.8333C15.1668 20.4784 14.6453 20.9999 14.0002 20.9999ZM14.0002 2.33325C7.56716 2.33325 2.3335 7.56692 2.3335 13.9999C2.3335 20.4329 7.56716 25.6666 14.0002 25.6666C20.4332 25.6666 25.6668 20.4329 25.6668 13.9999C25.6668 7.56692 20.4332 2.33325 14.0002 2.33325Z" fill="white"/>
</mask>
<g mask="url(#mask0)">
<rect width="28" height="28" fill="#A6ADB1"/>
</g>
</svg>
